{"asset":{"version":"2.0","generator":"babylon.js glTF exporter for maya 2018 v1.2.26"},"scene":0,"scenes":[{"nodes":[0,1],"extensions":{}}],"nodes":[{"mesh":0,"translation":[0.0,0.0,0.0],"rotation":[0.0,0.0,0.0,1.0],"scale":[3.6575098,3.6575098,3.6575098],"name":"pSphere1"},{"translation":[0.0,0.0,0.0],"rotation":[0.0,0.0,0.0,1.0],"scale":[1.0,1.0,1.0],"name":"Default light"}],"meshes":[{"primitives":[{"attributes":{"POSITION":1,"NORMAL":2,"TANGENT":3,"TEXCOORD_0":4},"indices":0,"mode":4,"material":0}],"name":"pSphere1"}],"accessors":[{"bufferView":0,"componentType":5123,"count":2280,"type":"SCALAR","name":"accessorIndices"},{"bufferView":1,"componentType":5126,"count":439,"max":[1.0,1.0,1.00000012],"min":[-1.00000024,-1.0,-1.00000048],"type":"VEC3","name":"accessorPositions"},{"bufferView":1,"byteOffset":5268,"componentType":5126,"count":439,"type":"VEC3","name":"accessorNormals"},{"bufferView":2,"componentType":5126,"count":439,"type":"VEC4","name":"accessorTangents"},{"bufferView":3,"componentType":5126,"count":439,"type":"VEC2","name":"accessorUVs"}],"bufferViews":[{"buffer":0,"byteLength":4560,"name":"bufferViewScalar"},{"buffer":0,"byteOffset":4560,"byteLength":10536,"byteStride":12,"name":"bufferViewFloatVec3"},{"buffer":0,"byteOffset":15096,"byteLength":7024,"byteStride":16,"name":"bufferViewFloatVec4"},{"buffer":0,"byteOffset":22120,"byteLength":3512,"byteStride":8,"name":"bufferViewFloatVec2"}],"buffers":[{"uri":"A.bin","byteLength":25632}],"materials":[{"pbrMetallicRoughness":{"baseColorFactor":[0.5,0.5,0.5,1.0],"metallicFactor":1.0,"roughnessFactor":0.33},"emissiveFactor":[0.0,0.0,0.0],"alphaMode":"OPAQUE","name":"StingrayPBS1"}]}