{"asset":{"version":"2.0","generator":"babylon.js glTF exporter for maya 2018 v1.2.26"},"scene":0,"scenes":[{"nodes":[0,1,2,3,4],"extensions":{}}],"nodes":[{"mesh":0,"translation":[0.0,0.0,0.0],"rotation":[0.0,0.0,0.0,1.0],"scale":[1.0,1.0,1.0],"name":"d:Obj3d66FBXASC045567113FBXASC0452FBXASC04538"},{"mesh":1,"translation":[0.0,0.0,0.0],"rotation":[0.0,0.0,0.0,1.0],"scale":[1.0,1.0,1.0],"name":"polySurface81"},{"mesh":2,"translation":[0.0,0.0,0.0],"rotation":[0.0,0.0,0.0,1.0],"scale":[1.0,1.0,1.0],"name":"dimian:polySurface1173"},{"mesh":3,"translation":[0.0,0.0,0.0],"rotation":[0.0,0.0,0.0,1.0],"scale":[1.0,1.0,1.0],"name":"polySurface447"},{"translation":[0.0,0.0,0.0],"rotation":[0.0,0.0,0.0,1.0],"scale":[1.0,1.0,1.0],"name":"Default light"}],"meshes":[{"primitives":[{"attributes":{"POSITION":1,"NORMAL":2,"TANGENT":3,"TEXCOORD_0":4,"TEXCOORD_1":5},"indices":0,"mode":4,"material":0}],"name":"d:Obj3d66FBXASC045567113FBXASC0452FBXASC04538"},{"primitives":[{"attributes":{"POSITION":7,"NORMAL":8,"TANGENT":9,"TEXCOORD_0":10},"indices":6,"mode":4,"material":1}],"name":"polySurface81"},{"primitives":[{"attributes":{"POSITION":12,"NORMAL":13,"TANGENT":14,"TEXCOORD_0":15},"indices":11,"mode":4,"material":2}],"name":"dimian:polySurface1173"},{"primitives":[{"attributes":{"POSITION":17,"NORMAL":18,"TANGENT":19,"TEXCOORD_0":20},"indices":16,"mode":4,"material":3}],"name":"polySurface447"}],"accessors":[{"bufferView":0,"componentType":5123,"count":32754,"type":"SCALAR","name":"accessorIndices"},{"bufferView":1,"componentType":5126,"count":21459,"max":[12.5909567,2.864101,8.945991],"min":[-0.278559625,-0.000154634,-8.732281],"type":"VEC3","name":"accessorPositions"},{"bufferView":1,"byteOffset":257508,"componentType":5126,"count":21459,"type":"VEC3","name":"accessorNormals"},{"bufferView":2,"componentType":5126,"count":21459,"type":"VEC4","name":"accessorTangents"},{"bufferView":3,"componentType":5126,"count":21459,"type":"VEC2","name":"accessorUVs"},{"bufferView":3,"byteOffset":171672,"componentType":5126,"count":21459,"type":"VEC2","name":"accessorUV2s"},{"bufferView":0,"byteOffset":65508,"componentType":5123,"count":19161,"type":"SCALAR","name":"accessorIndices"},{"bufferView":1,"byteOffset":515016,"componentType":5126,"count":8223,"max":[15.1054306,11.4294271,10.725297],"min":[-15.1190624,-1.86025886E-06,-10.9398222],"type":"VEC3","name":"accessorPositions"},{"bufferView":1,"byteOffset":613692,"componentType":5126,"count":8223,"type":"VEC3","name":"accessorNormals"},{"bufferView":2,"byteOffset":343344,"componentType":5126,"count":8223,"type":"VEC4","name":"accessorTangents"},{"bufferView":3,"byteOffset":343344,"componentType":5126,"count":8223,"type":"VEC2","name":"accessorUVs"},{"bufferView":0,"byteOffset":103832,"componentType":5123,"count":30,"type":"SCALAR","name":"accessorIndices"},{"bufferView":1,"byteOffset":712368,"componentType":5126,"count":20,"max":[15.1054306,-1.39519409E-06,10.6744995],"min":[-15.3730488,-0.126995057,-10.9144211],"type":"VEC3","name":"accessorPositions"},{"bufferView":1,"byteOffset":712608,"componentType":5126,"count":20,"type":"VEC3","name":"accessorNormals"},{"bufferView":2,"byteOffset":474912,"componentType":5126,"count":20,"type":"VEC4","name":"accessorTangents"},{"bufferView":3,"byteOffset":409128,"componentType":5126,"count":20,"type":"VEC2","name":"accessorUVs"},{"bufferView":0,"byteOffset":103892,"componentType":5123,"count":21570,"type":"SCALAR","name":"accessorIndices"},{"bufferView":1,"byteOffset":712848,"componentType":5126,"count":12022,"max":[-5.18815756,10.9214525,9.937937],"min":[-15.3730488,-1.24017254E-06,-10.2032566],"type":"VEC3","name":"accessorPositions"},{"bufferView":1,"byteOffset":857112,"componentType":5126,"count":12022,"type":"VEC3","name":"accessorNormals"},{"bufferView":2,"byteOffset":475232,"componentType":5126,"count":12022,"type":"VEC4","name":"accessorTangents"},{"bufferView":3,"byteOffset":409288,"componentType":5126,"count":12022,"type":"VEC2","name":"accessorUVs"}],"bufferViews":[{"buffer":0,"byteLength":147032,"name":"bufferViewScalar"},{"buffer":0,"byteOffset":147032,"byteLength":1001376,"byteStride":12,"name":"bufferViewFloatVec3"},{"buffer":0,"byteOffset":1148408,"byteLength":667584,"byteStride":16,"name":"bufferViewFloatVec4"},{"buffer":0,"byteOffset":1815992,"byteLength":505464,"byteStride":8,"name":"bufferViewFloatVec2"}],"buffers":[{"uri":"s.bin","byteLength":2321456}],"materials":[{"pbrMetallicRoughness":{"baseColorFactor":[1.0,1.0,1.0,1.0],"baseColorTexture":{"index":0,"texCoord":0},"metallicFactor":0.0,"roughnessFactor":0.33},"emissiveFactor":[0.0,0.0,0.0],"alphaMode":"OPAQUE","name":"StingrayPBS3"},{"pbrMetallicRoughness":{"baseColorFactor":[1.0,1.0,1.0,1.0],"baseColorTexture":{"index":1,"texCoord":0},"metallicFactor":0.0,"roughnessFactor":0.295792669},"emissiveFactor":[0.0,0.0,0.0],"alphaMode":"OPAQUE","name":"StingrayPBS2"},{"pbrMetallicRoughness":{"baseColorFactor":[1.0,1.0,1.0,1.0],"baseColorTexture":{"index":2,"texCoord":0},"metallicFactor":0.2,"roughnessFactor":0.8},"emissiveFactor":[0.0,0.0,0.0],"alphaMode":"OPAQUE","name":"StingrayPBS4"},{"pbrMetallicRoughness":{"baseColorFactor":[1.0,1.0,1.0,1.0],"baseColorTexture":{"index":3,"texCoord":0},"metallicFactor":0.0,"roughnessFactor":0.6},"emissiveFactor":[0.0,0.0,0.0],"alphaMode":"OPAQUE","name":"StingrayPBS1"}],"textures":[{"sampler":0,"source":0,"name":"c.0001.png"},{"sampler":1,"source":1,"name":"a.0001.png"},{"sampler":2,"source":2,"name":"e.0001.png"},{"sampler":3,"source":3,"name":"b.0001.png"}],"images":[{"uri":"c.0001.png"},{"uri":"a.0001.png"},{"uri":"e.0001.png"},{"uri":"b.0001.png"}],"samplers":[{"magFilter":9729,"minFilter":9987,"wrapS":10497,"wrapT":10497},{"magFilter":9729,"minFilter":9987,"wrapS":10497,"wrapT":10497},{"magFilter":9729,"minFilter":9987,"wrapS":10497,"wrapT":10497},{"magFilter":9729,"minFilter":9987,"wrapS":10497,"wrapT":10497}]}