{"asset":{"version":"2.0","generator":"babylon.js glTF exporter for maya 2018 v1.2.26"},"scene":0,"scenes":[{"nodes":[0,17],"extensions":{}}],"nodes":[{"children":[1,2,3,4,5,6,7,8,9,10,11,12,13,14,15,16],"translation":[0.0,0.0,0.0],"rotation":[0.0,0.0,0.0,1.0],"scale":[1.0,1.0,1.0],"name":"group6"},{"mesh":0,"translation":[0.0,0.0,0.0],"rotation":[0.0,0.0,0.0,1.0],"scale":[1.0,1.0,1.0],"name":"polySurface264"},{"mesh":1,"translation":[0.0,0.0,0.0],"rotation":[0.0,0.0,0.0,1.0],"scale":[1.0,1.0,1.0],"name":"polySurface263"},{"mesh":2,"translation":[0.0,0.0,0.0],"rotation":[0.0,0.0,0.0,1.0],"scale":[1.0,1.0,1.0],"name":"polySurface265"},{"mesh":3,"translation":[0.0,0.0,0.0],"rotation":[0.0,0.0,0.0,1.0],"scale":[1.0,1.0,1.0],"name":"polySurface272"},{"mesh":4,"translation":[0.0,0.0,0.0],"rotation":[0.0,0.0,0.0,1.0],"scale":[1.0,1.0,1.0],"name":"polySurface273"},{"mesh":5,"translation":[0.0,0.0,0.0],"rotation":[0.0,0.0,0.0,1.0],"scale":[1.0,1.0,1.0],"name":"polySurface274"},{"mesh":6,"translation":[0.0,0.0,0.0],"rotation":[0.0,0.0,0.0,1.0],"scale":[1.0,1.0,1.0],"name":"polySurface275"},{"mesh":7,"translation":[0.0,0.0,0.0],"rotation":[0.0,0.0,0.0,1.0],"scale":[1.0,1.0,1.0],"name":"polySurface276"},{"mesh":8,"translation":[0.0,0.0,0.0],"rotation":[0.0,0.0,0.0,1.0],"scale":[1.0,1.0,1.0],"name":"polySurface277"},{"mesh":9,"translation":[0.0,0.0,0.0],"rotation":[0.0,0.0,0.0,1.0],"scale":[1.0,1.0,1.0],"name":"polySurface278"},{"mesh":10,"translation":[0.0,0.0,0.0],"rotation":[0.0,0.0,0.0,1.0],"scale":[1.0,1.0,1.0],"name":"polySurface279"},{"mesh":11,"translation":[0.0,0.0,0.0],"rotation":[0.0,0.0,0.0,1.0],"scale":[1.0,1.0,1.0],"name":"polySurface280"},{"mesh":12,"translation":[0.0,0.0,0.0],"rotation":[0.0,0.0,0.0,1.0],"scale":[1.0,1.0,1.0],"name":"polySurface281"},{"mesh":13,"translation":[0.0,0.0,0.0],"rotation":[0.0,0.0,0.0,1.0],"scale":[1.0,1.0,1.0],"name":"polySurface282"},{"mesh":14,"translation":[0.0,0.0,0.0],"rotation":[0.0,0.0,0.0,1.0],"scale":[1.0,1.0,1.0],"name":"polySurface283"},{"mesh":15,"translation":[0.0,0.0,0.0],"rotation":[0.0,0.0,0.0,1.0],"scale":[1.0,1.0,1.0],"name":"polySurface302"},{"translation":[0.0,0.0,0.0],"rotation":[0.0,0.0,0.0,1.0],"scale":[1.0,1.0,1.0],"name":"Default light"}],"meshes":[{"primitives":[{"attributes":{"POSITION":1,"NORMAL":2,"TANGENT":3,"TEXCOORD_0":4},"indices":0,"mode":4,"material":0}],"name":"polySurface264"},{"primitives":[{"attributes":{"POSITION":6,"NORMAL":7,"TANGENT":8,"TEXCOORD_0":9},"indices":5,"mode":4,"material":0}],"name":"polySurface263"},{"primitives":[{"attributes":{"POSITION":11,"NORMAL":12,"TANGENT":13,"TEXCOORD_0":14},"indices":10,"mode":4,"material":0}],"name":"polySurface265"},{"primitives":[{"attributes":{"POSITION":16,"NORMAL":17,"TANGENT":18,"TEXCOORD_0":19},"indices":15,"mode":4,"material":1}],"name":"polySurface272"},{"primitives":[{"attributes":{"POSITION":21,"NORMAL":22,"TANGENT":23,"TEXCOORD_0":24},"indices":20,"mode":4,"material":1}],"name":"polySurface273"},{"primitives":[{"attributes":{"POSITION":26,"NORMAL":27,"TANGENT":28,"TEXCOORD_0":29},"indices":25,"mode":4,"material":1}],"name":"polySurface274"},{"primitives":[{"attributes":{"POSITION":31,"NORMAL":32,"TANGENT":33,"TEXCOORD_0":34},"indices":30,"mode":4,"material":1}],"name":"polySurface275"},{"primitives":[{"attributes":{"POSITION":36,"NORMAL":37,"TANGENT":38,"TEXCOORD_0":39},"indices":35,"mode":4,"material":1}],"name":"polySurface276"},{"primitives":[{"attributes":{"POSITION":41,"NORMAL":42,"TANGENT":43,"TEXCOORD_0":44},"indices":40,"mode":4,"material":1}],"name":"polySurface277"},{"primitives":[{"attributes":{"POSITION":46,"NORMAL":47,"TANGENT":48,"TEXCOORD_0":49},"indices":45,"mode":4,"material":1}],"name":"polySurface278"},{"primitives":[{"attributes":{"POSITION":51,"NORMAL":52,"TANGENT":53,"TEXCOORD_0":54},"indices":50,"mode":4,"material":1}],"name":"polySurface279"},{"primitives":[{"attributes":{"POSITION":56,"NORMAL":57,"TANGENT":58,"TEXCOORD_0":59},"indices":55,"mode":4,"material":1}],"name":"polySurface280"},{"primitives":[{"attributes":{"POSITION":61,"NORMAL":62,"TANGENT":63,"TEXCOORD_0":64},"indices":60,"mode":4,"material":1}],"name":"polySurface281"},{"primitives":[{"attributes":{"POSITION":66,"NORMAL":67,"TANGENT":68,"TEXCOORD_0":69},"indices":65,"mode":4,"material":1}],"name":"polySurface282"},{"primitives":[{"attributes":{"POSITION":71,"NORMAL":72,"TANGENT":73,"TEXCOORD_0":74},"indices":70,"mode":4,"material":1}],"name":"polySurface283"},{"primitives":[{"attributes":{"POSITION":76,"NORMAL":77,"TANGENT":78,"TEXCOORD_0":79},"indices":75,"mode":4,"material":2}],"name":"polySurface302"}],"accessors":[{"bufferView":0,"componentType":5123,"count":2640,"type":"SCALAR","name":"accessorIndices"},{"bufferView":1,"componentType":5126,"count":2636,"max":[-0.6347871,11.4998617,-3.71556282],"min":[-5.144088,0.409450531,-6.90411663],"type":"VEC3","name":"accessorPositions"},{"bufferView":1,"byteOffset":31632,"componentType":5126,"count":2636,"type":"VEC3","name":"accessorNormals"},{"bufferView":2,"componentType":5126,"count":2636,"type":"VEC4","name":"accessorTangents"},{"bufferView":3,"componentType":5126,"count":2636,"type":"VEC2","name":"accessorUVs"},{"bufferView":0,"byteOffset":5280,"componentType":5123,"count":4566,"type":"SCALAR","name":"accessorIndices"},{"bufferView":1,"byteOffset":63264,"componentType":5126,"count":4554,"max":[9.463226,11.5940771,-5.261469],"min":[5.984631,0.455915451,-8.376085],"type":"VEC3","name":"accessorPositions"},{"bufferView":1,"byteOffset":117912,"componentType":5126,"count":4554,"type":"VEC3","name":"accessorNormals"},{"bufferView":2,"byteOffset":42176,"componentType":5126,"count":4554,"type":"VEC4","name":"accessorTangents"},{"bufferView":3,"byteOffset":21088,"componentType":5126,"count":4554,"type":"VEC2","name":"accessorUVs"},{"bufferView":0,"byteOffset":14412,"componentType":5123,"count":2040,"type":"SCALAR","name":"accessorIndices"},{"bufferView":1,"byteOffset":172560,"componentType":5126,"count":2036,"max":[3.75204659,8.933363,-1.08339691],"min":[1.352519,0.3731494,-2.71486664],"type":"VEC3","name":"accessorPositions"},{"bufferView":1,"byteOffset":196992,"componentType":5126,"count":2036,"type":"VEC3","name":"accessorNormals"},{"bufferView":2,"byteOffset":115040,"componentType":5126,"count":2036,"type":"VEC4","name":"accessorTangents"},{"bufferView":3,"byteOffset":57520,"componentType":5126,"count":2036,"type":"VEC2","name":"accessorUVs"},{"bufferView":0,"byteOffset":18492,"componentType":5123,"count":744,"type":"SCALAR","name":"accessorIndices"},{"bufferView":1,"byteOffset":221424,"componentType":5126,"count":202,"max":[4.91584969,14.5822659,-9.365562],"min":[-4.5703826,7.548597,-9.789885],"type":"VEC3","name":"accessorPositions"},{"bufferView":1,"byteOffset":223848,"componentType":5126,"count":202,"type":"VEC3","name":"accessorNormals"},{"bufferView":2,"byteOffset":147616,"componentType":5126,"count":202,"type":"VEC4","name":"accessorTangents"},{"bufferView":3,"byteOffset":73808,"componentType":5126,"count":202,"type":"VEC2","name":"accessorUVs"},{"bufferView":0,"byteOffset":19980,"componentType":5123,"count":1965,"type":"SCALAR","name":"accessorIndices"},{"bufferView":1,"byteOffset":226272,"componentType":5126,"count":534,"max":[-8.143789,18.01481,-9.496208],"min":[-11.5409145,2.75129128,-10.1419439],"type":"VEC3","name":"accessorPositions"},{"bufferView":1,"byteOffset":232680,"componentType":5126,"count":534,"type":"VEC3","name":"accessorNormals"},{"bufferView":2,"byteOffset":150848,"componentType":5126,"count":534,"type":"VEC4","name":"accessorTangents"},{"bufferView":3,"byteOffset":75424,"componentType":5126,"count":534,"type":"VEC2","name":"accessorUVs"},{"bufferView":0,"byteOffset":23912,"componentType":5123,"count":2640,"type":"SCALAR","name":"accessorIndices"},{"bufferView":1,"byteOffset":239088,"componentType":5126,"count":612,"max":[-4.77230263,14.5642624,-9.363727],"min":[-8.610997,7.58560658,-9.607306],"type":"VEC3","name":"accessorPositions"},{"bufferView":1,"byteOffset":246432,"componentType":5126,"count":612,"type":"VEC3","name":"accessorNormals"},{"bufferView":2,"byteOffset":159392,"componentType":5126,"count":612,"type":"VEC4","name":"accessorTangents"},{"bufferView":3,"byteOffset":79696,"componentType":5126,"count":612,"type":"VEC2","name":"accessorUVs"},{"bufferView":0,"byteOffset":29192,"componentType":5123,"count":36,"type":"SCALAR","name":"accessorIndices"},{"bufferView":1,"byteOffset":253776,"componentType":5126,"count":24,"max":[0.8441286,7.933989,-8.270834],"min":[-0.7146596,7.68575573,-11.325552],"type":"VEC3","name":"accessorPositions"},{"bufferView":1,"byteOffset":254064,"componentType":5126,"count":24,"type":"VEC3","name":"accessorNormals"},{"bufferView":2,"byteOffset":169184,"componentType":5126,"count":24,"type":"VEC4","name":"accessorTangents"},{"bufferView":3,"byteOffset":84592,"componentType":5126,"count":24,"type":"VEC2","name":"accessorUVs"},{"bufferView":0,"byteOffset":29264,"componentType":5123,"count":768,"type":"SCALAR","name":"accessorIndices"},{"bufferView":1,"byteOffset":254352,"componentType":5126,"count":145,"max":[0.4646877,9.385731,-8.323534],"min":[-0.3216753,7.96969032,-9.092816],"type":"VEC3","name":"accessorPositions"},{"bufferView":1,"byteOffset":256092,"componentType":5126,"count":145,"type":"VEC3","name":"accessorNormals"},{"bufferView":2,"byteOffset":169568,"componentType":5126,"count":145,"type":"VEC4","name":"accessorTangents"},{"bufferView":3,"byteOffset":84784,"componentType":5126,"count":145,"type":"VEC2","name":"accessorUVs"},{"bufferView":0,"byteOffset":30800,"componentType":5123,"count":1965,"type":"SCALAR","name":"accessorIndices"},{"bufferView":1,"byteOffset":257832,"componentType":5126,"count":534,"max":[11.8818865,18.01481,-9.496208],"min":[8.484761,2.75129128,-10.1419439],"type":"VEC3","name":"accessorPositions"},{"bufferView":1,"byteOffset":264240,"componentType":5126,"count":534,"type":"VEC3","name":"accessorNormals"},{"bufferView":2,"byteOffset":171888,"componentType":5126,"count":534,"type":"VEC4","name":"accessorTangents"},{"bufferView":3,"byteOffset":85944,"componentType":5126,"count":534,"type":"VEC2","name":"accessorUVs"},{"bufferView":0,"byteOffset":34732,"componentType":5123,"count":87,"type":"SCALAR","name":"accessorIndices"},{"bufferView":1,"byteOffset":270648,"componentType":5126,"count":31,"max":[4.879565,14.5495224,-9.366058],"min":[-4.534097,7.58134031,-9.366058],"type":"VEC3","name":"accessorPositions"},{"bufferView":1,"byteOffset":271020,"componentType":5126,"count":31,"type":"VEC3","name":"accessorNormals"},{"bufferView":2,"byteOffset":180432,"componentType":5126,"count":31,"type":"VEC4","name":"accessorTangents"},{"bufferView":3,"byteOffset":90216,"componentType":5126,"count":31,"type":"VEC2","name":"accessorUVs"},{"bufferView":0,"byteOffset":34908,"componentType":5123,"count":72,"type":"SCALAR","name":"accessorIndices"},{"bufferView":1,"byteOffset":271392,"componentType":5126,"count":26,"max":[8.90444,14.497982,-9.442097],"min":[5.13667,7.651838,-9.442097],"type":"VEC3","name":"accessorPositions"},{"bufferView":1,"byteOffset":271704,"componentType":5126,"count":26,"type":"VEC3","name":"accessorNormals"},{"bufferView":2,"byteOffset":180928,"componentType":5126,"count":26,"type":"VEC4","name":"accessorTangents"},{"bufferView":3,"byteOffset":90464,"componentType":5126,"count":26,"type":"VEC2","name":"accessorUVs"},{"bufferView":0,"byteOffset":35052,"componentType":5123,"count":72,"type":"SCALAR","name":"accessorIndices"},{"bufferView":1,"byteOffset":272016,"componentType":5126,"count":26,"max":[-4.80929852,14.497982,-9.442097],"min":[-8.577068,7.651838,-9.442097],"type":"VEC3","name":"accessorPositions"},{"bufferView":1,"byteOffset":272328,"componentType":5126,"count":26,"type":"VEC3","name":"accessorNormals"},{"bufferView":2,"byteOffset":181344,"componentType":5126,"count":26,"type":"VEC4","name":"accessorTangents"},{"bufferView":3,"byteOffset":90672,"componentType":5126,"count":26,"type":"VEC2","name":"accessorUVs"},{"bufferView":0,"byteOffset":35196,"componentType":5123,"count":2640,"type":"SCALAR","name":"accessorIndices"},{"bufferView":1,"byteOffset":272640,"componentType":5126,"count":612,"max":[8.938369,14.5642624,-9.363727],"min":[5.099674,7.58560658,-9.607306],"type":"VEC3","name":"accessorPositions"},{"bufferView":1,"byteOffset":279984,"componentType":5126,"count":612,"type":"VEC3","name":"accessorNormals"},{"bufferView":2,"byteOffset":181760,"componentType":5126,"count":612,"type":"VEC4","name":"accessorTangents"},{"bufferView":3,"byteOffset":90880,"componentType":5126,"count":612,"type":"VEC2","name":"accessorUVs"},{"bufferView":0,"byteOffset":40476,"componentType":5123,"count":3480,"type":"SCALAR","name":"accessorIndices"},{"bufferView":1,"byteOffset":287328,"componentType":5126,"count":794,"max":[9.344245,14.951725,-9.363727],"min":[-9.02106,7.14840746,-9.607306],"type":"VEC3","name":"accessorPositions"},{"bufferView":1,"byteOffset":296856,"componentType":5126,"count":794,"type":"VEC3","name":"accessorNormals"},{"bufferView":2,"byteOffset":191552,"componentType":5126,"count":794,"type":"VEC4","name":"accessorTangents"},{"bufferView":3,"byteOffset":95776,"componentType":5126,"count":794,"type":"VEC2","name":"accessorUVs"},{"bufferView":0,"byteOffset":47436,"componentType":5123,"count":1560,"type":"SCALAR","name":"accessorIndices"},{"bufferView":1,"byteOffset":306384,"componentType":5126,"count":423,"max":[9.387277,14.9906254,-9.496467],"min":[-9.064097,7.109565,-9.920788],"type":"VEC3","name":"accessorPositions"},{"bufferView":1,"byteOffset":311460,"componentType":5126,"count":423,"type":"VEC3","name":"accessorNormals"},{"bufferView":2,"byteOffset":204256,"componentType":5126,"count":423,"type":"VEC4","name":"accessorTangents"},{"bufferView":3,"byteOffset":102128,"componentType":5126,"count":423,"type":"VEC2","name":"accessorUVs"},{"bufferView":0,"byteOffset":50556,"componentType":5123,"count":186,"type":"SCALAR","name":"accessorIndices"},{"bufferView":1,"byteOffset":316536,"componentType":5126,"count":92,"max":[42.01716,21.92297,14.4289589],"min":[-42.1195831,-0.45307672,-11.4993343],"type":"VEC3","name":"accessorPositions"},{"bufferView":1,"byteOffset":317640,"componentType":5126,"count":92,"type":"VEC3","name":"accessorNormals"},{"bufferView":2,"byteOffset":211024,"componentType":5126,"count":92,"type":"VEC4","name":"accessorTangents"},{"bufferView":3,"byteOffset":105512,"componentType":5126,"count":92,"type":"VEC2","name":"accessorUVs"}],"bufferViews":[{"buffer":0,"byteLength":50928,"name":"bufferViewScalar"},{"buffer":0,"byteOffset":50928,"byteLength":318744,"byteStride":12,"name":"bufferViewFloatVec3"},{"buffer":0,"byteOffset":369672,"byteLength":212496,"byteStride":16,"name":"bufferViewFloatVec4"},{"buffer":0,"byteOffset":582168,"byteLength":106248,"byteStride":8,"name":"bufferViewFloatVec2"}],"buffers":[{"uri":"A.bin","byteLength":688416}],"materials":[{"pbrMetallicRoughness":{"baseColorFactor":[1.0,1.0,1.0,1.0],"baseColorTexture":{"index":1,"texCoord":0},"metallicFactor":0.2,"roughnessFactor":0.8},"occlusionTexture":{"index":0,"texCoord":0},"emissiveFactor":[0.0,0.0,0.0],"alphaMode":"OPAQUE","name":"StingrayPBS7"},{"pbrMetallicRoughness":{"baseColorFactor":[1.0,1.0,1.0,1.0],"baseColorTexture":{"index":3,"texCoord":0},"metallicFactor":0.3,"roughnessFactor":0.6},"occlusionTexture":{"index":2,"texCoord":0},"emissiveFactor":[0.0,0.0,0.0],"alphaMode":"OPAQUE","name":"StingrayPBS10"},{"pbrMetallicRoughness":{"baseColorFactor":[1.0,1.0,1.0,1.0],"baseColorTexture":{"index":5,"texCoord":0},"metallicFactor":0.2,"roughnessFactor":0.6},"occlusionTexture":{"index":4,"texCoord":0},"emissiveFactor":[0.0,0.0,0.0],"alphaMode":"OPAQUE","name":"StingrayPBS9"}],"textures":[{"sampler":0,"source":0,"name":"ren_AO.jpg"},{"sampler":1,"source":1,"name":"ren.jpg"},{"sampler":2,"source":2,"name":"out_wall_AO.jpg"},{"sampler":3,"source":3,"name":"out_wall.jpg"},{"sampler":4,"source":4,"name":"out_AO.jpg"},{"sampler":5,"source":5,"name":"OUT.jpg"}],"images":[{"uri":"ren_AO.jpg"},{"uri":"ren.jpg"},{"uri":"out_wall_AO.jpg"},{"uri":"out_wall.jpg"},{"uri":"out_AO.jpg"},{"uri":"OUT.jpg"}],"samplers":[{"magFilter":9729,"minFilter":9987,"wrapS":10497,"wrapT":10497},{"magFilter":9729,"minFilter":9987,"wrapS":10497,"wrapT":10497},{"magFilter":9729,"minFilter":9987,"wrapS":10497,"wrapT":10497},{"magFilter":9729,"minFilter":9987,"wrapS":10497,"wrapT":10497},{"magFilter":9729,"minFilter":9987,"wrapS":10497,"wrapT":10497},{"magFilter":9729,"minFilter":9987,"wrapS":10497,"wrapT":10497}]}